<?xml version="1.0" standalone="no"?>
<!DOCTYPE svg PUBLIC "-//W3C//DTD SVG 20010904//EN"
 "http://www.w3.org/TR/2001/REC-SVG-20010904/DTD/svg10.dtd">
<svg version="1.0" xmlns="http://www.w3.org/2000/svg"
 width="700.000000pt" height="700.000000pt" viewBox="0 0 700.000000 700.000000"
 preserveAspectRatio="xMidYMid meet">
<metadata>
Created by potrace 1.14, written by Peter Selinger 2001-2017
</metadata>
<g transform="translate(0.000000,700.000000) scale(0.100000,-0.100000)"
fill="#000000" stroke="none">
<path d="M3280 6994 c-19 -2 -84 -9 -145 -14 -578 -56 -1180 -283 -1660 -625
-237 -169 -531 -446 -709 -670 -416 -521 -673 -1147 -748 -1820 -17 -154 -17
-585 0 -730 69 -588 254 -1099 567 -1570 126 -189 242 -332 410 -504 580 -595
1295 -943 2140 -1043 145 -17 576 -17 730 0 511 57 1005 222 1431 479 635 383
1136 957 1422 1628 132 311 207 592 264 995 13 92 23 2498 12 2680 l-7 95 -18
-79 c-21 -86 -88 -237 -139 -311 -215 -312 -605 -467 -980 -389 -533 110 -864
650 -723 1179 23 89 96 238 153 315 56 75 154 171 225 220 74 51 225 118 311
138 l79 19 -80 6 c-85 6 -2476 7 -2535 1z"/>
</g>
</svg>
