<?xml version="1.0" encoding="UTF-8" standalone="no"?>
<svg
   xmlns:dc="http://purl.org/dc/elements/1.1/"
   xmlns:cc="http://creativecommons.org/ns#"
   xmlns:rdf="http://www.w3.org/1999/02/22-rdf-syntax-ns#"
   xmlns:svg="http://www.w3.org/2000/svg"
   xmlns="http://www.w3.org/2000/svg"
   xmlns:sodipodi="http://sodipodi.sourceforge.net/DTD/sodipodi-0.dtd"
   xmlns:inkscape="http://www.inkscape.org/namespaces/inkscape"
   width="136.83315mm"
   height="132.29167mm"
   viewBox="0 0 136.83315 132.29168"
   version="1.1"
   id="svg8"
   sodipodi:docname="background.svg"
   inkscape:version="1.0.1 (3bc2e813f5, 2020-09-07)">
  <sodipodi:namedview
     pagecolor="#ffffff"
     bordercolor="#666666"
     borderopacity="1"
     objecttolerance="10"
     gridtolerance="10"
     guidetolerance="10"
     inkscape:pageopacity="0"
     inkscape:pageshadow="2"
     inkscape:window-width="640"
     inkscape:window-height="480"
     id="namedview20"
     showgrid="false"
     inkscape:zoom="0.73606549"
     inkscape:cx="287.4155"
     inkscape:cy="249.833"
     inkscape:current-layer="svg8" />
  <defs
     id="defs2">
    <inkscape:perspective
       sodipodi:type="inkscape:persp3d"
       inkscape:vp_x="0 : 39.731692 : 1"
       inkscape:vp_y="0 : 1000 : 0"
       inkscape:vp_z="310.84068 : 39.731692 : 1"
       inkscape:persp3d-origin="155.42034 : 8.8783634 : 1"
       id="perspective28" />
  </defs>
  <metadata
     id="metadata5">
    <rdf:RDF>
      <cc:Work
         rdf:about="">
        <dc:format>image/svg+xml</dc:format>
        <dc:type
           rdf:resource="http://purl.org/dc/dcmitype/StillImage" />
        <dc:title />
      </cc:Work>
    </rdf:RDF>
  </metadata>
  <g
     id="layer1"
     transform="translate(75.539868,-52.694421)">
    <path
       id="path50"
       style="fill:#ffffff;stroke-width:1.03258"
       d="M 549.52539,100 A 250,250 0 0 0 300,350 250,250 0 0 0 549.52539,600 V 499.99805 A 149.99999,149.99999 0 0 1 400,350 149.99999,149.99999 0 0 1 549.52539,200.00195 Z"
       transform="matrix(0.26458334,0,0,0.26458334,-154.91487,26.236087)" />
    <path
       id="path61"
       style="fill:#b3b3b3;stroke-width:0.273203"
       d="M -4.7269859,52.694421 A 66.145835,66.145835 0 0 1 61.293275,118.84026 66.145835,66.145835 0 0 1 -4.7269859,184.98609 V 158.52724 A 39.687498,39.687498 0 0 0 34.834941,118.84026 39.687498,39.687498 0 0 0 -4.7269859,79.153271 Z" />
  </g>
</svg>
