<?xml version="1.0" standalone="no"?>
<!DOCTYPE svg PUBLIC "-//W3C//DTD SVG 20010904//EN"
 "http://www.w3.org/TR/2001/REC-SVG-20010904/DTD/svg10.dtd">
<svg version="1.0" xmlns="http://www.w3.org/2000/svg"
 width="500.000000pt" height="500.000000pt" viewBox="0 0 500.000000 500.000000"
 preserveAspectRatio="xMidYMid meet">
<metadata>
Created by potrace 1.14, written by Peter Selinger 2001-2017
</metadata>
<g transform="translate(0.000000,500.000000) scale(0.100000,-0.100000)"
fill="#000000" stroke="none">
<path d="M2207 4994 c-1 -1 -35 -5 -75 -8 -40 -4 -78 -9 -85 -11 -7 -2 -30 -6
-52 -9 -77 -10 -188 -37 -300 -72 -559 -176 -1049 -575 -1353 -1104 -50 -88
-95 -181 -153 -315 -61 -142 -136 -408 -155 -550 -3 -27 -8 -58 -10 -69 -12
-67 -19 -186 -19 -356 1 -235 9 -330 47 -515 30 -150 85 -340 128 -440 118
-281 239 -484 411 -690 222 -267 483 -472 795 -625 104 -51 337 -139 414 -156
11 -2 30 -6 43 -9 19 -5 43 -10 132 -29 11 -2 45 -7 75 -11 30 -4 64 -9 75
-11 11 -2 73 -7 138 -10 l117 -6 0 626 0 626 -42 1 c-57 2 -164 17 -233 33
-117 27 -284 105 -394 183 -61 44 -204 179 -244 231 -142 185 -232 397 -265
625 -9 67 -9 297 1 362 34 222 114 414 249 592 216 287 552 465 891 472 l37 1
0 625 0 626 -86 -3 c-47 -2 -86 -4 -87 -4z"/>
<path d="M2620 4376 l0 -626 43 -1 c67 -2 133 -11 232 -33 40 -8 150 -48 213
-77 225 -101 443 -318 563 -558 97 -193 134 -358 133 -591 -1 -183 -18 -281
-76 -440 -130 -357 -425 -642 -773 -748 -38 -12 -81 -23 -95 -26 -14 -2 -41
-7 -60 -11 -44 -8 -94 -13 -142 -14 l-38 -1 0 -626 0 -626 113 6 c61 4 130 9
152 11 68 9 268 45 300 55 152 47 210 67 270 90 83 33 268 122 310 150 17 11
37 23 45 27 33 15 226 149 250 173 3 3 30 25 60 50 329 271 627 723 755 1146
15 49 31 102 36 119 12 37 46 200 59 281 33 205 35 523 4 769 -6 51 -42 230
-54 270 -5 17 -21 71 -36 120 -54 183 -150 400 -252 570 -43 72 -169 250 -209
296 -102 117 -139 157 -215 228 -256 242 -566 427 -891 532 -93 30 -279 73
-362 84 -27 4 -61 8 -75 10 -14 2 -78 7 -142 10 l-118 7 0 -626z"/>
</g>
</svg>
